<svg height="1294" width="720" xmlns="http://www.w3.org/2000/svg">
<rect height="1294" fill="#555" width="720"></rect>
<text fill="#7f7" font-family="Courier New" font-size="12" xml:space="preserve">
<tspan x="10" y="26">5 megabytes installed</tspan>
<tspan x="10" y="42"></tspan>
<tspan x="10" y="58">node_modules</tspan>
<tspan x="10" y="74">└─┬ share-term@2.0.0 </tspan>
<tspan x="10" y="90">  ├─┬ bug-killer@4.4.4 </tspan>
<tspan x="10" y="106">  │ ├── ansi-parser@3.2.7 </tspan>
<tspan x="10" y="122">  │ ├─┬ couleurs@6.0.8 </tspan>
<tspan x="10" y="138">  │ │ ├─┬ ansy@1.0.9 </tspan>
<tspan x="10" y="154">  │ │ │ ├── ansi-styles@3.0.0 </tspan>
<tspan x="10" y="170">  │ │ │ ├── custom-return@1.0.6 </tspan>
<tspan x="10" y="186">  │ │ │ └─┬ supports-color@3.2.3 </tspan>
<tspan x="10" y="202">  │ │ │   └── has-flag@1.0.0 </tspan>
<tspan x="10" y="218">  │ │ ├─┬ color-convert@1.9.0 </tspan>
<tspan x="10" y="234">  │ │ │ └── color-name@1.1.2 </tspan>
<tspan x="10" y="250">  │ │ └── iterate-object@1.3.2 </tspan>
<tspan x="10" y="266">  │ ├─┬ daty@1.0.11 </tspan>
<tspan x="10" y="282">  │ │ ├── add-subtract-date@1.0.9 </tspan>
<tspan x="10" y="298">  │ │ ├─┬ class-methods@1.0.6 </tspan>
<tspan x="10" y="314">  │ │ │ ├── exclude-arr@1.0.6 </tspan>
<tspan x="10" y="330">  │ │ │ └── static-methods@1.0.8 </tspan>
<tspan x="10" y="346">  │ │ ├── date-unit-ms@1.1.8 </tspan>
<tspan x="10" y="362">  │ │ ├── diff-dates@1.0.7 </tspan>
<tspan x="10" y="378">  │ │ └─┬ formatoid@1.0.7 </tspan>
<tspan x="10" y="394">  │ │   ├── days@1.1.0 </tspan>
<tspan x="10" y="410">  │ │   ├── fillo@1.0.8 </tspan>
<tspan x="10" y="426">  │ │   ├── months@1.0.1 </tspan>
<tspan x="10" y="442">  │ │   └─┬ parse-it@1.0.7 </tspan>
<tspan x="10" y="458">  │ │     └── regex-escape@3.4.6 </tspan>
<tspan x="10" y="474">  │ ├── deffy@2.2.2 </tspan>
<tspan x="10" y="490">  │ └─┬ typpy@2.3.8 </tspan>
<tspan x="10" y="506">  │   └─┬ function.name@1.0.8 </tspan>
<tspan x="10" y="522">  │     └── noop6@1.0.6 </tspan>
<tspan x="10" y="538">  ├── cli-resize@1.2.3 </tspan>
<tspan x="10" y="554">  ├─┬ ctrl-c@2.2.7 </tspan>
<tspan x="10" y="570">  │ └── keypress@0.2.1 </tspan>
<tspan x="10" y="586">  ├─┬ oargv@2.0.0 </tspan>
<tspan x="10" y="602">  │ └─┬ ul@5.0.0 </tspan>
<tspan x="10" y="618">  │   ├── deffy@2.0.0 </tspan>
<tspan x="10" y="634">  │   └── typpy@2.0.0 </tspan>
<tspan x="10" y="650">  ├── open@0.0.5 </tspan>
<tspan x="10" y="666">  ├─┬ pty.js@0.3.1 </tspan>
<tspan x="10" y="682">  │ ├── extend@1.2.1 </tspan>
<tspan x="10" y="698">  │ └── nan@2.3.5 </tspan>
<tspan x="10" y="714">  ├─┬ socket.io-client@1.7.3 </tspan>
<tspan x="10" y="730">  │ ├── backo2@1.0.2 </tspan>
<tspan x="10" y="746">  │ ├── component-bind@1.0.0 </tspan>
<tspan x="10" y="762">  │ ├── component-emitter@1.2.1 </tspan>
<tspan x="10" y="778">  │ ├─┬ debug@2.3.3 </tspan>
<tspan x="10" y="794">  │ │ └── ms@0.7.2 </tspan>
<tspan x="10" y="810">  │ ├─┬ engine.io-client@1.8.3 </tspan>
<tspan x="10" y="826">  │ │ ├── component-inherit@0.0.3 </tspan>
<tspan x="10" y="842">  │ │ ├─┬ engine.io-parser@1.3.2 </tspan>
<tspan x="10" y="858">  │ │ │ ├── after@0.8.2 </tspan>
<tspan x="10" y="874">  │ │ │ ├── arraybuffer.slice@0.0.6 </tspan>
<tspan x="10" y="890">  │ │ │ ├── base64-arraybuffer@0.1.5 </tspan>
<tspan x="10" y="906">  │ │ │ ├── blob@0.0.4 </tspan>
<tspan x="10" y="922">  │ │ │ └── wtf-8@1.0.0 </tspan>
<tspan x="10" y="938">  │ │ ├── has-cors@1.1.0 </tspan>
<tspan x="10" y="954">  │ │ ├── parsejson@0.0.3 </tspan>
<tspan x="10" y="970">  │ │ ├── parseqs@0.0.5 </tspan>
<tspan x="10" y="986">  │ │ ├─┬ ws@1.1.2 </tspan>
<tspan x="10" y="1002">  │ │ │ ├── options@0.0.6 </tspan>
<tspan x="10" y="1018">  │ │ │ └── ultron@1.0.2 </tspan>
<tspan x="10" y="1034">  │ │ ├── xmlhttprequest-ssl@1.5.3 </tspan>
<tspan x="10" y="1050">  │ │ └── yeast@0.1.2 </tspan>
<tspan x="10" y="1066">  │ ├─┬ has-binary@0.1.7 </tspan>
<tspan x="10" y="1082">  │ │ └── isarray@0.0.1 </tspan>
<tspan x="10" y="1098">  │ ├── indexof@0.0.1 </tspan>
<tspan x="10" y="1114">  │ ├── object-component@0.0.3 </tspan>
<tspan x="10" y="1130">  │ ├─┬ parseuri@0.0.5 </tspan>
<tspan x="10" y="1146">  │ │ └─┬ better-assert@1.0.2 </tspan>
<tspan x="10" y="1162">  │ │   └── callsite@1.0.0 </tspan>
<tspan x="10" y="1178">  │ ├─┬ socket.io-parser@2.3.1 </tspan>
<tspan x="10" y="1194">  │ │ ├── component-emitter@1.1.2 </tspan>
<tspan x="10" y="1210">  │ │ ├─┬ debug@2.2.0 </tspan>
<tspan x="10" y="1226">  │ │ │ └── ms@0.7.1 </tspan>
<tspan x="10" y="1242">  │ │ └── json3@3.3.2 </tspan>
<tspan x="10" y="1258">  │ └── to-array@0.1.4 </tspan>
<tspan x="10" y="1274">  └── ul@5.2.11</tspan>
</text>
</svg>
